<svg width="218" height="77" viewBox="0 0 218 77" fill="none" xmlns="http://www.w3.org/2000/svg">
<path d="M87.8201 76.07C93.0401 76.07 98.2501 76.07 103.47 76.07C105.47 76.07 105.93 75.21 105.87 73.44C105.82 71.9 104.76 71.44 103.65 70.92L86.0001 62.72C73.5267 56.9066 61.0601 51.09 48.6001 45.27C44.7901 43.5 43.2501 41.03 43.6001 37.34C43.9001 33.88 46.1501 32.08 49.0601 30.72C67.2601 22.21 85.4401 13.64 103.65 5.14997C105.33 4.35997 106.2 3.34997 105.84 1.47997C105.48 -0.390025 103.9 -2.55108e-05 102.7 -2.55108e-05C92.7001 -2.55108e-05 82.7001 -2.55108e-05 72.7701 -2.55108e-05C71.3931 -0.0430203 70.0246 0.230676 68.7701 0.799975L2.00009 31.88C1.00009 32.35 -0.329915 32.71 8.54135e-05 34.22C0.330085 35.73 1.69009 35.22 2.68009 35.22C12.0501 35.22 21.4201 35.28 30.7901 35.22C32.8801 35.22 33.5101 35.95 33.5501 37.98C33.5501 40.18 32.8001 40.9 30.6701 40.88C21.2201 40.82 11.7801 40.88 2.33009 40.88C1.46009 40.88 0.330085 40.68 0.0500854 41.88C-0.229915 43.08 0.820086 43.53 1.71009 44C2.32009 44.31 2.93009 44.59 3.55009 44.88C24.9301 54.8133 46.3068 64.75 67.6801 74.69C69.7866 75.7024 72.1037 76.1994 74.4401 76.14C78.9001 76 83.3601 76.08 87.8201 76.07Z" fill="#FF1A1A"/>
<path d="M129.55 -8.59424e-06C124.33 -8.59424e-06 119.12 0.0599914 113.9 -8.59424e-06C111.9 -8.59424e-06 111.44 0.859992 111.5 2.62999C111.5 4.17999 112.61 4.62999 113.72 5.14999L131.39 13.39L168.77 30.83C172.57 32.61 174.12 35.08 173.77 38.76C173.47 42.23 171.22 44.02 168.31 45.38C150.137 53.9 131.953 62.44 113.76 71C112.08 71.78 111.2 72.79 111.57 74.66C111.94 76.53 113.47 76.1 114.66 76.1C124.66 76.1 134.66 76.1 144.59 76.1C145.967 76.1332 147.334 75.8564 148.59 75.29L215.38 44.23C216.38 43.76 217.71 43.4 217.38 41.9C217.05 40.4 215.69 40.9 214.7 40.9C205.33 40.9 195.96 40.83 186.59 40.9C184.5 40.9 183.87 40.18 183.82 38.14C183.82 35.94 184.58 35.23 186.71 35.24C196.15 35.3 205.6 35.24 215.05 35.24C215.92 35.24 217.05 35.45 217.33 34.24C217.61 33.03 216.62 32.56 215.73 32.12L213.89 31.24C192.51 21.3067 171.133 11.3733 149.76 1.43999C147.629 0.416636 145.283 -0.0773473 142.92 -8.59424e-06C138.47 0.119991 134 -8.59424e-06 129.55 -8.59424e-06Z" fill="#FF1A1A"/>
</svg>
