<svg width="29" height="29" viewBox="0 0 29 29" fill="none" xmlns="http://www.w3.org/2000/svg">
<g clip-path="url(#clip0_72_38)">
<path d="M28.2943 16.5074C27.9976 16.4332 27.701 16.5074 27.4414 16.6928C26.4772 17.5086 25.3648 18.1761 24.141 18.6211C22.9914 19.0661 21.7306 19.2886 20.3956 19.2886C17.3919 19.2886 14.6478 18.0649 12.6824 16.0995C10.717 14.1341 9.49324 11.3899 9.49324 8.38622C9.49324 7.12539 9.71574 5.90166 10.0866 4.78917C10.4945 3.60251 11.0878 2.52711 11.8666 1.60003C12.2003 1.19212 12.1261 0.598791 11.7182 0.265044C11.4586 0.0796292 11.162 0.00546319 10.8653 0.0796291C7.71326 0.932538 4.96912 2.82377 3.00372 5.34541C1.11249 7.82997 0 10.9079 0 14.2453C0 18.2874 1.63165 21.9586 4.30163 24.6286C6.9716 27.2985 10.6057 28.9302 14.6849 28.9302C18.0965 28.9302 21.2485 27.7435 23.7702 25.7781C26.3289 23.7757 28.1831 20.9203 28.9618 17.657C29.1101 17.1378 28.8135 16.6186 28.2943 16.5074Z" fill="#FF1A1A"/>
</g>
<defs>
<clipPath id="clip0_72_38">
<rect width="29" height="29" fill="white" transform="translate(0 -0.00927734)"/>
</clipPath>
</defs>
</svg>
