<svg width="1865" height="978" viewBox="0 0 1865 978" fill="none" xmlns="http://www.w3.org/2000/svg">
<mask id="path-1-inside-1_43_79" fill="white">
<path d="M353.602 83.5C367.852 83.5 381.425 77.4201 390.911 66.7875L435.589 16.7125C445.075 6.07985 458.648 0 472.898 0L1364.5 0H1381.69C1395.6 0 1408.88 5.79241 1418.34 15.9859L1466.16 67.5142C1475.62 77.7076 1488.9 83.5 1502.81 83.5H1845C1856.05 83.5 1865 92.4543 1865 103.5V783.354C1865 796.28 1859.99 808.703 1851.03 818.018L1827 843L1794.92 879.174C1785.43 889.875 1771.81 896 1757.51 896H1418.04C1404 896 1390.6 901.903 1381.13 912.265L1336.37 961.235C1326.9 971.597 1313.5 977.5 1299.46 977.5H50C22.3857 977.5 0 955.114 0 927.5V133.5C0 105.886 22.3858 83.5 50 83.5H353.602Z"/>
</mask>
<path d="M1827 843L1825.56 841.613L1825.53 841.643L1825.5 841.673L1827 843ZM1466.16 67.5142L1464.7 68.8747L1466.16 67.5142ZM1381.13 912.265L1382.61 913.614L1381.13 912.265ZM1336.37 961.235L1334.89 959.886L1336.37 961.235ZM435.589 16.7125L437.081 18.044L435.589 16.7125ZM1851.03 818.018L1849.59 816.632L1851.03 818.018ZM1794.92 879.174L1796.42 880.501L1794.92 879.174ZM390.911 66.7875L389.419 65.456L390.911 66.7875ZM2 927.5V133.5H-2V927.5H2ZM50 85.5H353.602V81.5H50V85.5ZM392.404 68.119L437.081 18.044L434.096 15.381L389.419 65.456L392.404 68.119ZM472.898 2H1364.5V-2H472.898V2ZM1299.46 975.5H50V979.5H1299.46V975.5ZM1379.66 910.916L1334.89 959.886L1337.84 962.584L1382.61 913.614L1379.66 910.916ZM1364.5 2H1381.69V-2H1364.5V2ZM1416.87 17.3464L1464.7 68.8747L1467.63 66.1536L1419.8 14.6253L1416.87 17.3464ZM1502.81 85.5H1845V81.5H1502.81V85.5ZM1825.5 841.673L1793.42 877.847L1796.42 880.501L1828.5 844.327L1825.5 841.673ZM1757.51 894H1418.04V898H1757.51V894ZM1863 103.5V783.354H1867V103.5H1863ZM1849.59 816.632L1825.56 841.613L1828.44 844.387L1852.47 819.405L1849.59 816.632ZM1464.7 68.8747C1474.54 79.4759 1488.35 85.5 1502.81 85.5V81.5C1489.46 81.5 1476.71 75.9393 1467.63 66.1536L1464.7 68.8747ZM1381.69 2C1395.04 2 1407.79 7.56071 1416.87 17.3464L1419.8 14.6253C1409.96 4.02411 1396.15 -2 1381.69 -2V2ZM1382.61 913.614C1391.7 903.667 1404.56 898 1418.04 898V894C1403.44 894 1389.51 900.139 1379.66 910.916L1382.61 913.614ZM1299.46 979.5C1314.06 979.5 1327.99 973.361 1337.84 962.584L1334.89 959.886C1325.8 969.833 1312.94 975.5 1299.46 975.5V979.5ZM2 133.5C2 106.99 23.4903 85.5 50 85.5V81.5C21.2812 81.5 -2 104.781 -2 133.5H2ZM-2 927.5C-2 956.219 21.2812 979.5 50 979.5V975.5C23.4903 975.5 2 954.01 2 927.5H-2ZM437.081 18.044C446.188 7.83666 459.218 2 472.898 2V-2C458.078 -2 443.963 4.32305 434.096 15.381L437.081 18.044ZM1863 783.354C1863 795.763 1858.19 807.689 1849.59 816.632L1852.47 819.405C1861.79 809.717 1867 796.797 1867 783.354H1863ZM1845 85.5C1854.94 85.5 1863 93.5589 1863 103.5H1867C1867 91.3497 1857.15 81.5 1845 81.5V85.5ZM1793.42 877.847C1784.31 888.12 1771.24 894 1757.51 894V898C1772.39 898 1786.55 891.63 1796.42 880.501L1793.42 877.847ZM353.602 85.5C368.422 85.5 382.537 79.1769 392.404 68.119L389.419 65.456C380.312 75.6633 367.282 81.5 353.602 81.5V85.5Z" fill="#FF1A1A" mask="url(#path-1-inside-1_43_79)"/>
</svg>
