<svg width="45" height="45" viewBox="0 0 45 45" fill="none" xmlns="http://www.w3.org/2000/svg">
<g filter="url(#filter0_d_72_639)">
<path d="M33.0169 25.8697C32.1884 25.1417 31.1836 24.5126 30.0302 24.0001C29.5372 23.7812 28.9602 24.0032 28.7412 24.496C28.5223 24.9889 28.7443 25.5659 29.2371 25.785C30.2097 26.2172 31.0478 26.7393 31.7278 27.3368C32.566 28.0735 33.0469 29.1401 33.0469 30.2637V32.0703C33.0469 32.6088 32.6088 33.0469 32.0703 33.0469H12.9297C12.3912 33.0469 11.9531 32.6088 11.9531 32.0703V30.2637C11.9531 29.1401 12.434 28.0735 13.2722 27.3368C14.2589 26.4698 17.1337 24.4531 22.5 24.4531C26.4846 24.4531 29.7266 21.2112 29.7266 17.2266C29.7266 13.2419 26.4846 10 22.5 10C18.5154 10 15.2734 13.2419 15.2734 17.2266C15.2734 19.556 16.3816 21.6312 18.0982 22.9536C14.9572 23.644 13.0033 24.9731 11.9831 25.8697C10.7229 26.9769 10 28.5783 10 30.2637V32.0703C10 33.6858 11.3142 35 12.9297 35H32.0703C33.6858 35 35 33.6858 35 32.0703V30.2637C35 28.5783 34.2771 26.9769 33.0169 25.8697ZM17.2266 17.2266C17.2266 14.3188 19.5922 11.9531 22.5 11.9531C25.4078 11.9531 27.7734 14.3188 27.7734 17.2266C27.7734 20.1343 25.4078 22.5 22.5 22.5C19.5922 22.5 17.2266 20.1343 17.2266 17.2266Z" fill="#FF1A1A"/>
</g>
<defs>
<filter id="filter0_d_72_639" x="0" y="0" width="45" height="45" filterUnits="userSpaceOnUse" color-interpolation-filters="sRGB">
<feFlood flood-opacity="0" result="BackgroundImageFix"/>
<feColorMatrix in="SourceAlpha" type="matrix" values="0 0 0 0 0 0 0 0 0 0 0 0 0 0 0 0 0 0 127 0" result="hardAlpha"/>
<feOffset/>
<feGaussianBlur stdDeviation="5"/>
<feComposite in2="hardAlpha" operator="out"/>
<feColorMatrix type="matrix" values="0 0 0 0 1 0 0 0 0 0.101961 0 0 0 0 0.101961 0 0 0 1 0"/>
<feBlend mode="normal" in2="BackgroundImageFix" result="effect1_dropShadow_72_639"/>
<feBlend mode="normal" in="SourceGraphic" in2="effect1_dropShadow_72_639" result="shape"/>
</filter>
</defs>
</svg>
